<?xml version="1.0" encoding="UTF-8" standalone="no"?>
<!-- Created with Inkscape (http://www.inkscape.org/) -->

<svg
   width="111.4569mm"
   height="31.387304mm"
   viewBox="0 0 111.4569 31.387304"
   version="1.1"
   id="svg1"
   xml:space="preserve"
   xmlns="http://www.w3.org/2000/svg"
   xmlns:svg="http://www.w3.org/2000/svg"><defs
     id="defs1" /><g
     id="layer2"
     transform="translate(-31.632168,-44.80656)"><g
       opacity="1"
       transform="matrix(0.12942439,0,0,0.12942439,87.360577,62.123971)"
       class="s-XAJviI6P7Zf9"
       id="g1"><path
         fill="var(--color-text-primary)"
         fill-opacity="1"
         d="m -11.511,-59.428001 c 11.05999999,-0.171997 20.235,-8.321 20.1080001,-18.114998 C 8.585,-78.443001 8.1730003,-79.339996 7.6950002,-80.234001 7.1659999,-81.223999 5.8509998,-81.458 5.0159998,-80.708 c -0.7559996,0.678001 -1.4189999,1.368004 -1.5169997,2.130997 -0.948,7.365005 -4.6240001,12.026 -12.0709996,13.293006 C -16.280001,-63.973 -22.181,-66.503998 -26.138,-73.509003 c -0.382,-0.675995 -1.185999,-1.113998 -2.064999,-1.508995 -1.012001,-0.456001 -2.184,0.153 -2.401001,1.240998 -0.198999,1.000999 -0.334,1.979003 -0.042,2.806999 2.375,6.739998 10.815001,11.672001 19.135,11.542 z m 416.136,27.868002 c 0.48801,0.18 1.02899,-0.02 1.29501,-0.466002 1.056,-1.771999 2.228,-3.499001 2.97599,-5.392998 2.81701,-7.137001 5.24801,-14.430999 8.25799,-21.481003 0.46002,-1.077999 1.612,-1.861999 2.806,-2.626998 0.95001,-0.609002 2.22,-0.151001 2.564,0.923999 0.436,1.362999 0.828,2.711003 0.461,3.806 -2.65699,7.931999 -5.86799,15.677002 -8.76899,23.530003 -0.73901,2.001999 -1.19201,4.109998 -1.725,6.187998 -0.129,0.503 0.11499,1.024999 0.586,1.242 0,0 0.13201,0.061 0.13201,0.061 0.482,0.221998 1.055,0.058 1.344,-0.387001 0.80698,-1.245001 1.69,-2.459999 2.211,-3.815001 2.67099,-6.944999 5.05099,-14.005001 7.86798,-20.888 0.37601,-0.917999 1.40002,-1.57 2.43902,-2.216999 0.80399,-0.5 1.85999,-0.257 2.36499,0.543999 0.67399,1.069999 1.33799,2.136001 1.103,2.941001 -11.763,40.3650002 -27.92999,77.674 -68.14801,98.478001 -24.552,12.700001 -49.811,11.299 -75.483,4.809998 C 258.54599,46.521 234.57201,31.056 211.492,13.873 205.895,9.7060003 200.12,5.777 194.40199,1.775 176.659,-10.642 156.91901,-12.572 136.295,-8.8050003 125.092,-6.7589998 120.741,2.9430001 126.581,12.749 c 6.542,10.984999 13.61401,21.655999 20.43701,32.474 4.01899,6.372001 3.47699,8.562 -2.95401,12.150001 C 81.030998,92.541 13.108,108.342 -58.757999,108.711 c -5.772,0.03 -8.657002,-2.047 -9.108998,-7.866 C -68.767998,89.252998 -69.808998,77.670998 -70.927002,66.098 -72.478996,50.032001 -77.731003,45.999001 -93.328003,49.139999 -169.425,64.466003 -243.004,56.248001 -313.755,24.657 c -45.53599,-20.3320002 -84.35599,-49.911 -115.96799,-88.635001 -0.69901,-0.855999 -0.80301,-2.197002 -0.862,-3.575 -0.049,-1.147995 1.02298,-2.019997 2.13699,-1.737999 1.33399,0.337997 2.63101,0.712997 3.478,1.545997 4.97101,4.887001 9.52701,10.194004 14.32999,15.257004 1.14602,1.208 2.52301,2.196999 3.84201,3.242001 0.38699,0.305999 0.92901,0.317997 1.32101,0.019 0,0 0.173,-0.132 0.173,-0.132 0.409,-0.313 0.53998,-0.872997 0.306,-1.332001 -0.78302,-1.535 -1.462,-3.16 -2.565,-4.413998 -4.91601,-5.588001 -10.28702,-10.798999 -14.92901,-16.597003 -1.155,-1.442994 -1.848,-3.255997 -2.469,-5.126999 -0.48401,-1.458001 1.03501,-2.778 2.40701,-2.086998 1.58899,0.801002 3.12299,1.661003 4.36499,2.830001 4.56199,4.293 8.58799,9.152001 12.905,13.711998 0.99701,1.053002 2.172,1.939 3.306,2.862999 0.37799,0.308003 0.91199,0.330002 1.30799,0.046 0,0 0.038,-0.027 0.038,-0.027 0.42398,-0.305 0.56799,-0.870998 0.336,-1.339 -0.755,-1.523999 -1.40201,-3.145001 -2.49802,-4.361 -5.44998,-6.046997 -11.25299,-11.782997 -16.54699,-17.959 -0.918,-1.070999 -1.36399,-2.546997 -1.75501,-4.069 -0.32699,-1.271996 0.815,-2.440003 2.08701,-2.112 1.49399,0.385002 2.932,0.828003 3.892,1.762001 5.996,5.834999 11.52002,12.150002 17.324,18.185997 1.31699,1.369004 2.871,2.511002 4.38001,3.695999 0.57199,0.449006 1.39199,0.389 1.893,-0.137992 0,0 0,0 0,0 0.517,-0.543007 0.51798,-1.395005 0.004,-1.941002 -2.68201,-2.847 -5.35101,-5.706002 -8.06201,-8.525002 -3.064,-3.185997 -6.41999,-6.133003 -9.155,-9.574997 -0.70099,-0.882004 -0.91901,-2.146003 -1.08701,-3.451004 -0.14898,-1.156997 0.85102,-2.135002 2,-1.931 1.374,0.244004 2.71002,0.528 3.54602,1.331002 10.06699,9.666 19.84699,19.628998 29.80799,29.406997 3.42401,3.361 7.04101,6.525002 10.59799,9.751004 0.66202,0.599998 1.67102,0.595997 2.32501,-0.012 0,0 0,0 0,0 0.58499,-0.544003 0.71301,-1.417 0.32001,-2.112 -0.762,-1.347999 -1.48102,-2.739002 -2.53601,-3.795002 -5.58899,-5.597 -11.465,-10.910995 -16.95301,-16.600998 -0.72699,-0.752998 -0.971,-1.972 -1.17999,-3.223999 -0.177,-1.061004 0.655,-2.021004 1.73099,-2 1.47101,0.029 2.927,0.075 3.742,0.820999 7.37702,6.748001 14.73502,13.573998 21.426,20.982998 2.61301,2.894001 4.92001,7.416001 4.789,11.105 -0.181,5.076 1.77502,7.569999 5.452,10.100002 C -309.90701,-11.519 -271.457,2.625 -229.39,6.902 -179.351,11.989 -130.521,4.572 -82.245003,-7.8070002 -61.297001,-13.178 -40.476002,-19.066 -19.724001,-25.150999 -16.719,-26.032 -12.235,-29.334999 -12.233,-31.521 c 0.006,-5.460998 -0.052,-11.922001 -6.469,-14.994999 -1.458999,-0.699001 -3.100999,-1.005001 -4.607999,-1.617 C -38.444,-54.282001 -45.759998,-67.848 -42.396,-83.469002 c 3.321999,-15.424995 16.004,-25.823998 30.759,-25.217998 16.6249999,0.682 29.049001,11.554996 31.112,27.539997 1.243,9.631004 -2.104999,17.821003 -8.754,24.764004 C 5.2709999,-50.691002 4.3340001,-43.431 9.2869997,-37.296001 10.713,-35.529999 15.075,-34.785 17.59,-35.453999 40.066002,-41.43 62.445,-47.776001 84.823997,-54.112999 112.308,-61.896 139.882,-65.252998 168.12399,-57.824001 188.33701,-52.507 205.651,-42.105999 222.44299,-30.097 241.151,-16.718 260.12701,-3.6140001 279.76801,8.3269997 294.228,17.118999 310.409,21.802999 327.82999,19.625999 339.77499,18.132999 349.978,12.844 359.09,5.2509999 360.25101,4.283 361.91501,2.53 361.69,1.5039999 c -2.22201,-10.1259996 3.85199,-17.8909989 7.22901,-26.3799989 2.14599,-5.396 4.57,-10.709 7.31298,-15.822003 0.48401,-0.900997 1.659,-1.431999 2.866,-1.945999 0.95801,-0.407997 2.056,0.124001 2.33002,1.128002 0.33798,1.237999 0.63898,2.461998 0.25799,3.410999 -2.68499,6.685 -5.875,13.164999 -8.776,19.767001 -0.83999,1.910999 -1.432,3.930999 -2.09201,5.921999 -0.16598,0.502 0.052,1.049 0.52201,1.292 0,0 0.27301,0.141 0.27301,0.141 0.45498,0.235 1.01498,0.119 1.32998,-0.285 1.21701,-1.561 2.58802,-3.051 3.401,-4.800001 C 383.005,-30.399 389.517,-44.799999 396.07199,-59.18 c 0.772,-1.693001 1.20902,-3.657002 2.36301,-5.020996 0.62701,-0.741005 1.56601,-1.220002 2.535,-1.672005 0.90399,-0.421997 1.97601,0.007 2.33499,0.938003 0.42902,1.113999 0.823,2.215996 0.51401,3.059998 -2.479,6.763 -5.418,13.355999 -8.117,20.040001 -0.87799,2.174 -1.586,4.417 -2.34201,6.639999 -0.17099,0.501 0.048,1.050999 0.518,1.294998 0,0 0.116,0.061 0.116,0.061 0.483,0.251 1.08102,0.102001 1.38202,-0.352001 1.22,-1.841999 2.58099,-3.623997 3.42898,-5.623997 3.358,-7.919002 6.30402,-16.017002 9.823,-23.861 0.51901,-1.157001 1.64401,-2.042003 2.832,-2.898998 1.00601,-0.726006 2.43002,-0.205002 2.69901,1.006996 0.319,1.435997 0.57101,2.848999 0.14999,4.020001 -2.98798,8.307998 -6.548,16.407001 -9.74899,24.642002 -0.50601,1.302997 -0.51901,2.796997 -0.646,4.246998 -0.042,0.479 0.24301,0.926 0.69501,1.093 z"
         class="s-XAJviI6P7Zf9"
         id="path1"
         style="fill:#86184f;fill-opacity:1" /></g></g><g
     id="layer1"
     transform="rotate(-12.405888,-128.30764,139.12977)"><g
       id="g23"
       transform="matrix(0.70032459,-0.08582865,0.08582865,0.70032459,15.845518,27.82815)"><path
         style="fill:#ffffff;fill-opacity:1;stroke:none;stroke-width:3.60674;stroke-dasharray:none"
         d="m 335.93852,155.18559 c -6.42232,-0.13958 -12.36502,-0.82937 -16.32263,-1.89462 -1.84284,-0.49603 -3.26281,-1.15751 -3.3978,-1.58282 -0.0803,-0.25297 0.88682,-0.87734 1.945,-1.25572 0.49485,-0.17694 0.70372,-0.34944 0.80466,-0.66453 0.0263,-0.0823 0.19225,-1.43884 0.36866,-3.01463 0.17642,-1.57579 0.35996,-3.09437 0.40788,-3.37461 0.65457,-3.82887 2.44297,-7.34432 5.17005,-10.16277 0.69719,-0.72055 2.09374,-1.94749 2.09374,-1.83946 0,0.0164 -0.13628,1.29144 -0.30283,2.83332 -0.16656,1.54189 -0.29366,2.88732 -0.28245,2.98985 0.046,0.42038 0.44739,0.75322 0.90575,0.751 0.42427,-0.002 0.75112,-0.23423 0.86852,-0.61695 0.0252,-0.0823 0.21077,-1.72627 0.41231,-3.65337 0.20154,-1.92709 0.38037,-3.55054 0.39739,-3.60765 0.0655,-0.21974 1.62311,-0.99842 3.08611,-1.54279 0.36426,-0.13555 0.66459,-0.24352 0.66739,-0.23995 0.003,0.004 -0.28954,2.75613 -0.64963,6.11679 -0.36009,3.36067 -0.65561,6.24086 -0.65671,6.40043 -0.004,0.58202 0.33783,0.92767 0.91744,0.92767 0.36164,0 0.63299,-0.16521 0.79712,-0.48532 0.0716,-0.13971 0.19754,-1.22725 0.82612,-7.13581 0.40789,-3.83403 0.77023,-7.23757 0.8052,-7.56341 0.0538,-0.50144 0.0842,-0.63433 0.1978,-0.86507 0.27069,-0.54986 0.76995,-0.90822 1.38957,-0.99741 0.37139,-0.0535 4.96912,-0.0568 5.37958,-0.004 0.39944,0.0515 0.8604,0.28159 1.0971,0.54771 0.23137,0.26013 0.40939,0.6419 0.4628,0.9925 0.0233,0.15276 0.3906,3.55616 0.8163,7.56311 0.86005,8.09543 0.77609,7.52422 1.14509,7.79081 0.15341,0.11083 0.23231,0.1357 0.47373,0.14934 0.34044,0.0192 0.55115,-0.0661 0.7652,-0.30988 0.2702,-0.30775 0.29661,0.1013 -0.42906,-6.64632 -0.36275,-3.37307 -0.65554,-6.13839 -0.65063,-6.14516 0.005,-0.007 0.30461,0.11365 0.66602,0.26761 0.76624,0.32642 2.0892,1.00355 2.13557,1.09306 0.0176,0.0339 0.19765,1.63843 0.40013,3.56553 0.20248,1.92709 0.38919,3.59796 0.41492,3.71303 0.0498,0.22286 0.26031,0.49806 0.45989,0.60127 0.0608,0.0314 0.19824,0.0703 0.30536,0.0864 0.55006,0.0825 1.0219,-0.33508 1.0219,-0.90437 0,-0.22296 -0.52109,-5.26351 -0.57962,-5.60669 l -0.0247,-0.14481 0.18422,0.13548 c 0.41086,0.30215 1.19632,1.00043 1.76882,1.5725 2.86482,2.86265 4.7495,6.57847 5.37967,10.60655 0.0383,0.24489 0.21132,1.70657 0.38446,3.24819 0.21356,1.90151 0.3382,2.86142 0.38755,2.98477 0.0657,0.16426 0.36562,0.47897 0.45642,0.47897 0.0201,0 0.26178,0.0882 0.53711,0.19598 0.67748,0.26522 1.2647,0.59191 1.54006,0.85678 l 0.22821,0.21953 -0.0683,0.13207 c -0.25258,0.48844 -1.7174,1.11517 -3.89132,1.6649 -5.03892,1.27423 -13.11354,1.94902 -21.21515,1.77295 z m 6.94353,-2.70503 c 3.24081,-0.12934 7.2373,-0.45291 7.69926,-0.62336 0.59727,-0.22039 0.75468,-1.03019 0.29059,-1.49498 -0.28417,-0.28461 -0.42193,-0.30352 -1.42079,-0.19511 -5.89265,0.63955 -12.87231,0.72625 -19.11014,0.23739 -0.70058,-0.0549 -2.02721,-0.18173 -3.15071,-0.30121 -0.34664,-0.0369 -0.58585,0.0517 -0.8171,0.3026 -0.19236,0.20869 -0.24008,0.37452 -0.21048,0.73147 0.0249,0.29983 0.19527,0.55316 0.46122,0.68568 0.19449,0.0969 0.59515,0.14926 2.56338,0.33496 1.66997,0.15756 4.22106,0.3021 6.40941,0.36313 1.57537,0.0439 5.75042,0.0207 7.28536,-0.0406 z"
         id="path23"
         transform="matrix(0.25840537,0.05684194,-0.05684194,0.25840537,5.6265674,-19.742345)" /><path
         d="m 1045.9,785.63 -10.688,-96.375 c -19.125,-171 -135.56,-313.69 -297.94,-367.13 l -1.125,-10.5 C 732.397,273 700.335,243.75 661.522,243.75 h -103.88 c -38.812,0 -71.062,29.25 -74.625,67.688 l -0.5625,4.875 c -39.938,11.25 -77.625,27.562 -111.94,48.938 -0.375,0.375 -0.9375,0.5625 -1.3125,0.9375 -111.56,69.75 -189,188.06 -204,323.26 l -10.688,96.375 c -40.5,15.938 -60.375,34.875 -60.375,58.125 0,89.062 331.13,112.5 506.26,112.5 175.13,0 506.26,-23.438 506.26,-112.5 0,-23.062 -20.062,-42.188 -60.375,-58.125 z M 600.03,918.76 c -297,0 -465.37,-49.5 -468.74,-75 0,0 3.5625,-12 46.5,-27 h 0.1875 c 2.25,-0.75 4.3125,-2.0625 6,-3.5625 0.375,-0.375 0.75,-0.9375 1.125,-1.3125 1.125,-1.3125 2.25,-2.625 3.1875,-4.125 0.375,-0.9375 0.5625,-1.875 0.9375,-2.8125 0.375,-1.125 0.9375,-2.25 1.125,-3.5625 l 12,-107.62 c 12.375,-110.62 70.5,-208.87 155.81,-274.13 l -12.75,118.31 c -1.125,10.312 6.375,19.5 16.688,20.625 h 2.0625 c 9.375,0 17.625,-7.125 18.562,-16.688 l 15.938,-149.63 c 24.75,-14.625 51.375,-26.625 79.312,-35.625 l -27.75,260.26 c -1.125,10.312 6.375,19.5 16.688,20.625 10.313,1.125 19.5,-6.375 20.625,-16.688 l 30.562,-286.5 v -1.5 l 1.875,-17.625 c 1.875,-19.312 17.812,-33.938 37.312,-33.938 h 103.88 c 19.5,0 35.438,14.625 37.312,34.125 l 2.25,21 c 0,1.125 0,2.25 0.375,3.375 l 30,281.06 c 0.9375,9.5625 9.1875,16.688 18.562,16.688 h 2.0625 c 10.312,-1.125 17.812,-10.312 16.688,-20.625 l -27.188,-253.5 c 20.812,7.875 40.875,17.438 59.812,28.5 l 16.125,150 c 0.9375,9.5625 9.1875,16.688 18.562,16.688 h 2.0625 c 10.312,-1.125 17.812,-10.312 16.688,-20.625 l -12.75,-119.06 c 85.875,65.062 143.44,163.31 156,274.87 l 12,107.62 c 0,1.3125 0.75,2.4375 1.125,3.5625 0.375,0.9375 0.375,1.875 0.9375,2.8125 0.75,1.5 1.875,3 3.1875,4.125 0.375,0.375 0.5625,0.9375 1.125,1.3125 1.6875,1.5 3.75,2.8125 6,3.5625 h 0.1875 c 42.938,15 46.5,26.812 46.5,26.812 -3.375,25.5 -171.74,75 -468.74,75 z"
         id="path1-1"
         style="fill:#86184f;fill-opacity:1;stroke:#86181a;stroke-width:0.961167;stroke-dasharray:none;stroke-opacity:1"
         transform="matrix(0.01239177,0.00272584,-0.00272584,0.01239177,79.378726,26.599579)" /></g></g></svg>
