<?xml version="1.0" encoding="UTF-8" standalone="no"?>
<!-- Created with Inkscape (http://www.inkscape.org/) -->

<svg
   width="9.4006462mm"
   height="7.6282411mm"
   viewBox="0 0 9.4006462 7.6282411"
   version="1.1"
   id="svg1"
   xml:space="preserve"
   xmlns="http://www.w3.org/2000/svg"
   xmlns:svg="http://www.w3.org/2000/svg"><defs
     id="defs1" /><g
     id="layer1"
     transform="rotate(-12.405888,-376.53804,28.753605)"><g
       id="g26"
       transform="translate(0.30650973,-0.02518267)"><rect
         style="fill:#d4e5a2;fill-opacity:1;stroke:none;stroke-width:0.152849;stroke-dasharray:none;stroke-opacity:1"
         id="rect26"
         width="9.4006472"
         height="7.6282449"
         x="14.675442"
         y="80.312851"
         transform="rotate(12.405887)" /><path
         style="fill:#ffffff;fill-opacity:1;stroke:#ffffff;stroke-width:0;stroke-dasharray:none;stroke-opacity:1"
         d="m 57.09375,406.21016 c -1.112109,-0.079 -2.324866,-0.30778 -2.252524,-0.42483 0.01756,-0.0284 0.292498,-0.22797 0.610975,-0.44346 0.318477,-0.2155 0.628096,-0.45089 0.688042,-0.52309 0.240392,-0.28955 0.246092,-0.49767 0.07415,-2.70732 -0.228883,-2.94131 -0.176361,-4.13102 0.258025,-5.84466 0.217696,-0.85881 0.53456,-1.70715 0.963394,-2.5793 0.389737,-0.79264 1.234997,-2.13128 1.302888,-2.06339 0.02209,0.0221 0.05704,0.42507 0.07768,0.89552 0.0419,0.95529 0.127243,1.23095 0.452872,1.46282 0.286225,0.20381 0.835827,0.22857 1.147094,0.0517 0.386412,-0.2196 0.486541,-0.40421 0.510032,-0.94038 0.0113,-0.25781 -0.02399,-1.18594 -0.07841,-2.0625 l -0.09895,-1.59375 0.203619,-0.17698 c 0.345577,-0.30035 1.364583,-0.99539 1.403018,-0.95695 0.02,0.02 0.172495,1.30988 0.338873,2.8664 0.166378,1.55651 0.317228,2.89114 0.335222,2.96584 0.04491,0.18641 0.323217,0.50583 0.537096,0.61643 0.402041,0.20791 1.062593,0.0614 1.313824,-0.29145 0.260079,-0.36524 0.259307,-0.38629 -0.163982,-4.46876 -0.222301,-2.14401 -0.404078,-4.01775 -0.403949,-4.16387 2.8e-4,-0.31884 0.174225,-0.62964 0.42496,-0.7593 0.0994,-0.0514 1.020737,-0.25029 2.047422,-0.44197 2.005081,-0.37436 2.072024,-0.37664 2.386281,-0.0814 0.178705,0.16788 0.259445,0.42599 1.443278,4.61378 0.51063,1.80635 0.979268,3.36188 1.041419,3.45673 0.264993,0.40443 1.004192,0.5475 1.411301,0.27315 0.32222,-0.21715 0.49526,-0.5153 0.494187,-0.85151 -5.57e-4,-0.17459 -0.280028,-1.27873 -0.711137,-2.80955 l -0.71022,-2.52191 0.19097,0.0382 c 0.105034,0.021 0.377472,0.0937 0.605417,0.16162 l 0.414446,0.12343 0.555486,1.88488 c 0.305518,1.03668 0.613344,1.97073 0.684058,2.07566 0.425875,0.63196 1.444761,0.58204 1.786341,-0.0875 0.178175,-0.34925 0.154787,-0.60424 -0.151558,-1.65244 -0.150696,-0.51563 -0.26348,-0.9488 -0.250631,-0.9626 0.01285,-0.0138 0.185504,0.0817 0.383678,0.21225 1.86213,1.22662 3.445067,3.0005 4.470789,5.01008 0.507082,0.99347 0.615538,1.28736 1.299555,3.52152 0.342042,1.11719 0.669763,2.14018 0.728269,2.27331 0.134983,0.30717 0.445192,0.50868 0.924205,0.60035 0.20625,0.0395 0.529687,0.11515 0.71875,0.16817 l 0.34375,0.0964 -0.227037,0.19679 c -0.731386,0.63394 -3.049729,1.65621 -5.741713,2.53179 -6.829712,2.22139 -16.480363,3.68889 -21.78125,3.3121 z m 13.4375,-3.24738 c 0.515625,-0.11104 0.958594,-0.21981 0.984374,-0.24171 0.03879,-0.0329 -1.290112,-7.1807 -1.342583,-7.22132 -0.02229,-0.0173 -2.112952,0.4502 -2.139448,0.47837 -0.01132,0.012 0.285008,1.61094 0.658512,3.55313 0.373505,1.94219 0.679954,3.5683 0.680997,3.61359 0.0011,0.0483 0.04707,0.0694 0.111273,0.0511 0.06016,-0.0172 0.53125,-0.1221 1.046875,-0.23314 z"
         id="path122"
         transform="matrix(0.25840537,0.05684194,-0.05684194,0.25840537,5.3200576,-19.717162)" /><g
         id="g20"
         transform="translate(0.18418757,0.23557692)"><g
           id="g7"
           transform="matrix(0.69351387,-0.12984458,0.12984458,0.69351387,-63.362077,72.291124)"><path
             d="m 90.155997,39.231796 0.130259,-1.223391 c 0.229126,-2.171124 -0.824759,-4.256689 -2.691266,-5.361527 l 0.01468,-0.13318 c 0.05882,-0.488854 -0.258758,-0.938709 -0.73972,-1.044507 L 85.582693,31.18603 c -0.480949,-0.105795 -0.960315,0.168756 -1.109242,0.635359 l -0.02026,0.05888 c -0.525568,0.03054 -1.037041,0.129949 -1.520532,0.301298 -0.0057,0.0036 -0.01315,0.0044 -0.01882,0.008 -1.572553,0.560231 -2.854666,1.815212 -3.409076,3.449692 l -0.395146,1.165123 c -0.545311,0.0871 -0.843217,0.26759 -0.906593,0.555699 -0.242768,1.103636 3.79663,2.296682 5.966801,2.774058 2.170171,0.477376 6.337346,1.089545 6.580114,-0.01409 0.06286,-0.285779 -0.133606,-0.57747 -0.589713,-0.884845 z m -5.88801,0.434346 c -3.680355,-0.809575 -5.631829,-1.881917 -5.60408,-2.207093 0,0 0.07686,-0.138991 0.649815,-0.207826 l 0.0023,5.11e-4 c 0.02993,-0.0032 0.05906,-0.0138 0.08406,-0.02779 0.0057,-0.0036 0.01185,-0.0096 0.01752,-0.0132 0.01752,-0.0132 0.03504,-0.0264 0.05074,-0.04243 0.0072,-0.01059 0.01208,-0.0217 0.01928,-0.0323 0.0077,-0.01292 0.01775,-0.02533 0.02365,-0.04108 l 0.442056,-1.300893 c 0.454881,-1.337045 1.442966,-2.396097 2.677997,-2.972242 l -0.36459,0.981684 c -0.04205,0.124717 0.02584,0.259017 0.150573,0.301069 l 0.02556,0.0056 c 0.116173,0.02556 0.237827,-0.04025 0.275505,-0.156197 l 0.489468,-1.361104 c 0.346562,-0.113765 0.709203,-0.189891 1.079924,-0.225265 l -0.692016,2.278666 c -0.04205,0.124718 0.02584,0.259017 0.150574,0.301069 0.124729,0.04205 0.259016,-0.02584 0.301069,-0.150573 l 0.798388,-2.596162 0.0041,-0.01859 0.07128,-0.213294 c 0.07588,-0.234199 0.313232,-0.372 0.554871,-0.318846 l 1.287257,0.283161 c 0.24164,0.05315 0.399274,0.277828 0.369343,0.524575 l -0.02936,0.266361 c -0.0031,0.01394 -0.0061,0.02788 -0.0046,0.04284 l -0.322807,2.545242 c -0.01445,0.121052 0.06836,0.231838 0.184527,0.257391 l 0.02556,0.0056 c 0.130851,0.01417 0.248831,-0.07923 0.263015,-0.210091 l 0.282528,-2.19606 c 0.236431,0.154315 0.45898,0.327506 0.66349,0.516203 l -0.172146,1.503585 c -0.01445,0.121052 0.06836,0.231838 0.184527,0.257391 l 0.02556,0.0056 c 0.130851,0.01417 0.248831,-0.07923 0.263014,-0.210091 l 0.129631,-1.110984 c 0.886795,1.040315 1.332319,2.414694 1.183865,3.831357 l -0.144654,1.366312 c -0.0036,0.01626 0.0026,0.03225 0.0042,0.04721 0.0021,0.01264 -4.64e-4,0.02426 0.004,0.03741 0.0052,0.02063 0.01506,0.04229 0.02825,0.0598 0.0036,0.0057 0.0044,0.01315 0.01036,0.01933 0.01682,0.02319 0.0388,0.04507 0.06464,0.0605 l 0.0023,5.11e-4 c 0.49119,0.302918 0.503132,0.459 0.503132,0.459 -0.111331,0.30679 -2.332601,0.461246 -6.012956,-0.348328 z"
             id="path7"
             style="fill:#86184f;fill-opacity:1;stroke:#86184f;stroke-width:0.296217;stroke-dasharray:none;stroke-opacity:1" /><text
             xml:space="preserve"
             style="font-style:normal;font-variant:normal;font-weight:bold;font-stretch:normal;font-size:6.99991px;font-family:'PP Fraktion Sans';-inkscape-font-specification:'PP Fraktion Sans, Bold';font-variant-ligatures:normal;font-variant-caps:normal;font-variant-numeric:normal;font-variant-east-asian:normal;writing-mode:lr-tb;direction:ltr;fill:#86184f;fill-opacity:1;stroke-width:0.594879"
             x="66.51339"
             y="30.949194"
             id="text122"
             transform="matrix(1.3261519,0.24555437,-0.15634014,0.72511302,0,0)"><tspan
               id="tspan122"
               style="font-style:normal;font-variant:normal;font-weight:bold;font-stretch:normal;font-size:6.99991px;font-family:'PP Fraktion Sans';-inkscape-font-specification:'PP Fraktion Sans, Bold';font-variant-ligatures:normal;font-variant-caps:normal;font-variant-numeric:normal;font-variant-east-asian:normal;fill:#86184f;fill-opacity:1;stroke-width:0.594879"
               x="66.51339"
               y="30.949194">I</tspan></text></g></g></g></g></svg>
