<?xml version="1.0" encoding="UTF-8" standalone="no"?>
<!-- Created with Inkscape (http://www.inkscape.org/) -->

<svg
   width="11.175916mm"
   height="10.982954mm"
   viewBox="0 0 11.175916 10.982954"
   version="1.1"
   id="svg1"
   xml:space="preserve"
   xmlns="http://www.w3.org/2000/svg"
   xmlns:svg="http://www.w3.org/2000/svg"><defs
     id="defs1" /><g
     id="layer1"
     transform="rotate(-12.405888,-717.25881,337.78184)"><g
       id="g122"
       transform="translate(0.0112424,-0.01389761)"><rect
         style="fill:#d4e5a2;fill-opacity:1;stroke:none;stroke-width:0.0890574;stroke-dasharray:none;stroke-opacity:1"
         id="rect35"
         width="11.175912"
         height="10.98296"
         x="89.307449"
         y="146.22163"
         transform="rotate(12.405887)" /><g
         opacity="1"
         transform="matrix(0.12640236,0.02780498,-0.02780498,0.12640236,59.449629,180.64558)"
         class="s-XAJviI6P7Zf9"
         id="g33"><path
           fill="var(--color-text-primary)"
           fill-opacity="1"
           d="m -11.511,-59.428001 c 11.05999999,-0.171997 20.235,-8.321 20.1080001,-18.114998 C 8.585,-78.443001 8.1730003,-79.339996 7.6950002,-80.234001 7.1659999,-81.223999 5.8509998,-81.458 5.0159998,-80.708 c -0.7559996,0.678001 -1.4189999,1.368004 -1.5169997,2.130997 -0.948,7.365005 -4.6240001,12.026 -12.0709996,13.293006 C -16.280001,-63.973 -22.181,-66.503998 -26.138,-73.509003 c -0.382,-0.675995 -1.185999,-1.113998 -2.064999,-1.508995 -1.012001,-0.456001 -2.184,0.153 -2.401001,1.240998 -0.198999,1.000999 -0.334,1.979003 -0.042,2.806999 2.375,6.739998 10.815001,11.672001 19.135,11.542 z m -11.347856,9.546448 C -37.992857,-56.030555 -45.759998,-67.848 -42.396,-83.469002 c 3.321999,-15.424995 16.004,-25.823998 30.759,-25.217998 16.6249999,0.682 29.049001,11.554996 31.112,27.539997 1.243,9.631004 -2.104999,17.821003 -8.754,24.764004 -2.2779441,2.379092 -9.2393947,6.484271 -9.5786559,6.48451 l -24.0012001,0.01694 z"
           class="s-XAJviI6P7Zf9"
           id="path33"
           style="fill:#86184f;fill-opacity:1" /></g><g
         id="g35"
         transform="matrix(0.70032459,-0.08582865,0.08582865,0.70032459,-2.3057014,148.77452)"><path
           style="fill:#ffffff;fill-opacity:1;stroke:none;stroke-width:5.21211;stroke-dasharray:none"
           d="m 335.93852,155.18559 c -6.42232,-0.13958 -12.36502,-0.82937 -16.32263,-1.89462 -1.84284,-0.49603 -3.26281,-1.15751 -3.3978,-1.58282 -0.0803,-0.25297 0.88682,-0.87734 1.945,-1.25572 0.49485,-0.17694 0.70372,-0.34944 0.80466,-0.66453 0.0263,-0.0823 0.19225,-1.43884 0.36866,-3.01463 0.17642,-1.57579 0.35996,-3.09437 0.40788,-3.37461 0.65457,-3.82887 2.44297,-7.34432 5.17005,-10.16277 0.69719,-0.72055 2.09374,-1.94749 2.09374,-1.83946 0,0.0164 -0.13628,1.29144 -0.30283,2.83332 -0.16656,1.54189 -0.29366,2.88732 -0.28245,2.98985 0.046,0.42038 0.44739,0.75322 0.90575,0.751 0.42427,-0.002 0.75112,-0.23423 0.86852,-0.61695 0.0252,-0.0823 0.21077,-1.72627 0.41231,-3.65337 0.20154,-1.92709 0.38037,-3.55054 0.39739,-3.60765 0.0655,-0.21974 1.62311,-0.99842 3.08611,-1.54279 0.36426,-0.13555 0.66459,-0.24352 0.66739,-0.23995 0.003,0.004 -0.28954,2.75613 -0.64963,6.11679 -0.36009,3.36067 -0.65561,6.24086 -0.65671,6.40043 -0.004,0.58202 0.33783,0.92767 0.91744,0.92767 0.36164,0 0.63299,-0.16521 0.79712,-0.48532 0.0716,-0.13971 0.19754,-1.22725 0.82612,-7.13581 0.40789,-3.83403 0.77023,-7.23757 0.8052,-7.56341 0.0538,-0.50144 0.0842,-0.63433 0.1978,-0.86507 0.27069,-0.54986 0.76995,-0.90822 1.38957,-0.99741 0.37139,-0.0535 4.96912,-0.0568 5.37958,-0.004 0.39944,0.0515 0.8604,0.28159 1.0971,0.54771 0.23137,0.26013 0.40939,0.6419 0.4628,0.9925 0.0233,0.15276 0.3906,3.55616 0.8163,7.56311 0.86005,8.09543 0.77609,7.52422 1.14509,7.79081 0.15341,0.11083 0.23231,0.1357 0.47373,0.14934 0.34044,0.0192 0.55115,-0.0661 0.7652,-0.30988 0.2702,-0.30775 0.29661,0.1013 -0.42906,-6.64632 -0.36275,-3.37307 -0.65554,-6.13839 -0.65063,-6.14516 0.005,-0.007 0.30461,0.11365 0.66602,0.26761 0.76624,0.32642 2.0892,1.00355 2.13557,1.09306 0.0176,0.0339 0.19765,1.63843 0.40013,3.56553 0.20248,1.92709 0.38919,3.59796 0.41492,3.71303 0.0498,0.22286 0.26031,0.49806 0.45989,0.60127 0.0608,0.0314 0.19824,0.0703 0.30536,0.0864 0.55006,0.0825 1.0219,-0.33508 1.0219,-0.90437 0,-0.22296 -0.52109,-5.26351 -0.57962,-5.60669 l -0.0247,-0.14481 0.18422,0.13548 c 0.41086,0.30215 1.19632,1.00043 1.76882,1.5725 2.86482,2.86265 4.7495,6.57847 5.37967,10.60655 0.0383,0.24489 0.21132,1.70657 0.38446,3.24819 0.21356,1.90151 0.3382,2.86142 0.38755,2.98477 0.0657,0.16426 0.36562,0.47897 0.45642,0.47897 0.0201,0 0.26178,0.0882 0.53711,0.19598 0.67748,0.26522 1.2647,0.59191 1.54006,0.85678 l 0.22821,0.21953 -0.0683,0.13207 c -0.25258,0.48844 -1.7174,1.11517 -3.89132,1.6649 -5.03892,1.27423 -13.11354,1.94902 -21.21515,1.77295 z m 6.94353,-2.70503 c 3.24081,-0.12934 7.2373,-0.45291 7.69926,-0.62336 0.59727,-0.22039 0.75468,-1.03019 0.29059,-1.49498 -0.28417,-0.28461 -0.42193,-0.30352 -1.42079,-0.19511 -5.89265,0.63955 -12.87231,0.72625 -19.11014,0.23739 -0.70058,-0.0549 -2.02721,-0.18173 -3.15071,-0.30121 -0.34664,-0.0369 -0.58585,0.0517 -0.8171,0.3026 -0.19236,0.20869 -0.24008,0.37452 -0.21048,0.73147 0.0249,0.29983 0.19527,0.55316 0.46122,0.68568 0.19449,0.0969 0.59515,0.14926 2.56338,0.33496 1.66997,0.15756 4.22106,0.3021 6.40941,0.36313 1.57537,0.0439 5.75042,0.0207 7.28536,-0.0406 z"
           id="path34"
           transform="matrix(0.25840537,0.05684194,-0.05684194,0.25840537,5.6265674,-19.742345)" /><path
           d="m 1045.9,785.63 -10.688,-96.375 c -19.125,-171 -135.56,-313.69 -297.94,-367.13 l -1.125,-10.5 C 732.397,273 700.335,243.75 661.522,243.75 h -103.88 c -38.812,0 -71.062,29.25 -74.625,67.688 l -0.5625,4.875 c -39.938,11.25 -77.625,27.562 -111.94,48.938 -0.375,0.375 -0.9375,0.5625 -1.3125,0.9375 -111.56,69.75 -189,188.06 -204,323.26 l -10.688,96.375 c -40.5,15.938 -60.375,34.875 -60.375,58.125 0,89.062 331.13,112.5 506.26,112.5 175.13,0 506.26,-23.438 506.26,-112.5 0,-23.062 -20.062,-42.188 -60.375,-58.125 z M 600.03,918.76 c -297,0 -465.37,-49.5 -468.74,-75 0,0 3.5625,-12 46.5,-27 h 0.1875 c 2.25,-0.75 4.3125,-2.0625 6,-3.5625 0.375,-0.375 0.75,-0.9375 1.125,-1.3125 1.125,-1.3125 2.25,-2.625 3.1875,-4.125 0.375,-0.9375 0.5625,-1.875 0.9375,-2.8125 0.375,-1.125 0.9375,-2.25 1.125,-3.5625 l 12,-107.62 c 12.375,-110.62 70.5,-208.87 155.81,-274.13 l -12.75,118.31 c -1.125,10.312 6.375,19.5 16.688,20.625 h 2.0625 c 9.375,0 17.625,-7.125 18.562,-16.688 l 15.938,-149.63 c 24.75,-14.625 51.375,-26.625 79.312,-35.625 l -27.75,260.26 c -1.125,10.312 6.375,19.5 16.688,20.625 10.313,1.125 19.5,-6.375 20.625,-16.688 l 30.562,-286.5 v -1.5 l 1.875,-17.625 c 1.875,-19.312 17.812,-33.938 37.312,-33.938 h 103.88 c 19.5,0 35.438,14.625 37.312,34.125 l 2.25,21 c 0,1.125 0,2.25 0.375,3.375 l 30,281.06 c 0.9375,9.5625 9.1875,16.688 18.562,16.688 h 2.0625 c 10.312,-1.125 17.812,-10.312 16.688,-20.625 l -27.188,-253.5 c 20.812,7.875 40.875,17.438 59.812,28.5 l 16.125,150 c 0.9375,9.5625 9.1875,16.688 18.562,16.688 h 2.0625 c 10.312,-1.125 17.812,-10.312 16.688,-20.625 l -12.75,-119.06 c 85.875,65.062 143.44,163.31 156,274.87 l 12,107.62 c 0,1.3125 0.75,2.4375 1.125,3.5625 0.375,0.9375 0.375,1.875 0.9375,2.8125 0.75,1.5 1.875,3 3.1875,4.125 0.375,0.375 0.5625,0.9375 1.125,1.3125 1.6875,1.5 3.75,2.8125 6,3.5625 h 0.1875 c 42.938,15 46.5,26.812 46.5,26.812 -3.375,25.5 -171.74,75 -468.74,75 z"
           id="path35"
           style="fill:#86184f;fill-opacity:1;stroke:#86184f;stroke-width:23.4579;stroke-dasharray:none;stroke-opacity:1"
           transform="matrix(0.01239177,0.00272584,-0.00272584,0.01239177,79.378726,26.599579)" /></g></g></g></svg>
